<?xml version="1.0" encoding="UTF-8"?>
<svg id="Layer_1" data-name="Layer 1" xmlns="http://www.w3.org/2000/svg" viewBox="0 0 500 500">
  <defs>
    <style>
      .cls-1 {
        fill: #fff;
      }
    </style>
  </defs>
  <path class="cls-1" d="m253.09,213.95c-20.15,0-36.46,16.31-36.46,36.45s16.31,36.45,36.46,36.45,36.44-16.33,36.44-36.45-16.32-36.45-36.44-36.45Z"/>
  <path class="cls-1" d="m285.67,157.07h-71.33c-31.63,0-57.27,25.65-57.27,57.26v71.33c0,31.63,25.64,57.26,57.27,57.26h71.33c31.61,0,57.26-25.63,57.26-57.26v-71.33c0-31.61-25.65-57.26-57.26-57.26Zm-32.58,153.91c-33.47,0-60.59-27.13-60.59-60.58s27.12-60.58,60.59-60.58,60.58,27.11,60.58,60.58-27.12,60.58-60.58,60.58Zm56.38-106.7c-8.51,0-15.4-6.9-15.4-15.4s6.89-15.41,15.4-15.41,15.41,6.91,15.41,15.41-6.91,15.4-15.41,15.4Z"/>
  <path class="cls-1" d="m250,0C111.93,0,0,111.93,0,250s111.93,250,250,250,250-111.93,250-250S388.07,0,250,0Zm115,294.14c0,39.13-31.72,70.86-70.86,70.86h-88.27c-39.14,0-70.87-31.72-70.87-70.86v-88.27c0-39.15,31.73-70.87,70.87-70.87h88.27c39.14,0,70.86,31.73,70.86,70.87v88.27Z"/>
</svg>