<?xml version="1.0" encoding="UTF-8"?>
<svg id="Layer_1" data-name="Layer 1" xmlns="http://www.w3.org/2000/svg" viewBox="0 0 500 500">
  <defs>
    <style>
      .cls-1 {
        fill: #fff;
      }
    </style>
  </defs>
  <path class="cls-1" d="m250,0C111.93,0,0,111.93,0,250s111.93,250,250,250,250-111.93,250-250S388.07,0,250,0Zm91.48,203.08c.09,2.02.14,4.06.14,6.11,0,62.37-47.47,134.29-134.29,134.29-26.65,0-51.46-7.81-72.35-21.21,3.69.44,7.45.66,11.26.66,22.11,0,42.46-7.55,58.62-20.21-20.65-.38-38.08-14.03-44.09-32.78,2.88.55,5.84.85,8.88.85,4.3,0,8.47-.58,12.43-1.66-21.59-4.34-37.86-23.41-37.86-46.28,0-.2,0-.4,0-.59,6.36,3.54,13.64,5.66,21.38,5.9-12.66-8.46-21-22.91-21-39.29,0-8.65,2.33-16.76,6.39-23.73,23.28,28.56,58.06,47.35,97.28,49.31-.8-3.45-1.22-7.06-1.22-10.76,0-26.07,21.13-47.2,47.2-47.2,13.58,0,25.84,5.73,34.45,14.9,10.75-2.12,20.85-6.04,29.97-11.45-3.52,11.02-11.01,20.27-20.75,26.11,9.55-1.14,18.64-3.68,27.11-7.43-6.33,9.47-14.33,17.78-23.55,24.43Z"/>
</svg>