<?xml version="1.0" encoding="UTF-8"?>
<svg id="Layer_1" data-name="Layer 1" xmlns="http://www.w3.org/2000/svg" viewBox="0 0 500 500">
  <defs>
    <style>
      .cls-1 {
        fill: #fff;
      }
    </style>
  </defs>
  <polygon class="cls-1" points="227 284.5 286.75 250 227 215.5 227 284.5"/>
  <path class="cls-1" d="m250,0C111.93,0,0,111.93,0,250s111.93,250,250,250,250-111.93,250-250S388.07,0,250,0Zm110.19,305.36c-2.65,9.9-10.44,17.69-20.34,20.34-17.94,4.81-89.86,4.81-89.86,4.81,0,0-71.92,0-89.86-4.81-9.9-2.65-17.69-10.44-20.34-20.34-4.8-17.94-4.8-55.36-4.8-55.36,0,0,0-37.42,4.8-55.36,2.65-9.89,10.44-17.69,20.34-20.33,17.94-4.81,89.86-4.81,89.86-4.81,0,0,71.92,0,89.86,4.81,9.9,2.64,17.69,10.44,20.34,20.33,4.81,17.94,4.81,55.36,4.81,55.36,0,0,0,37.42-4.81,55.36Z"/>
</svg>